<svg width="1939" height="402" viewBox="0 0 1939 402" fill="none" xmlns="http://www.w3.org/2000/svg">
<g clip-path="url(#clip0_176_3)">
<rect width="401.958" height="1938.59" transform="matrix(0 -1 1 0 0 401.958)" fill="url(#paint0_linear_176_3)"/>
<path d="M1320.49 194.881C1282.5 205.707 1245.79 215.599 1208.68 209.563C1171.58 203.526 1138.14 189.143 1111.68 167.832C1085.21 146.52 1066.62 119.015 1057.74 88.0283C1048.87 57.0414 1050.01 23.6421 1061.06 -8.87739L1086.28 -8.87739C1077.03 18.3227 1071.26 51.4551 1078.68 77.3733C1086.11 103.292 1107.3 132.783 1129.44 150.609C1151.58 168.435 1187.13 181.557 1218.17 186.606C1249.21 191.655 1281.72 186.606 1311.63 172.769L1320.49 194.881Z" fill="url(#paint1_linear_176_3)"/>
<path d="M1320.49 194.881C1282.5 205.707 1245.79 215.599 1208.68 209.563C1171.58 203.526 1138.14 189.143 1111.68 167.832C1085.21 146.52 1066.62 119.015 1057.74 88.0283C1048.87 57.0414 1050.01 23.6421 1061.06 -8.87739L1086.28 -8.87739C1077.03 18.3227 1071.26 51.4551 1078.68 77.3733C1086.11 103.292 1107.3 132.783 1129.44 150.609C1151.58 168.435 1187.13 181.557 1218.17 186.606C1249.21 191.655 1281.72 186.606 1311.63 172.769L1320.49 194.881Z" fill="url(#paint2_radial_176_3)"/>
<path d="M903.611 -33.1253C881.549 -43.3047 856.639 -46.0488 830.453 -41.1842C804.266 -36.3197 777.372 -23.9522 751.467 -4.86202C725.561 14.2281 701.207 39.6266 679.941 69.7308C658.674 99.835 640.957 133.992 627.907 170.045C614.858 206.099 606.758 243.268 604.121 279.206C601.483 315.144 604.364 349.072 612.582 378.848C620.8 408.624 634.177 433.603 651.868 452.209C669.559 470.815 684.423 481.228 708.612 485.533L713.514 469.423C690.8 465.381 677.254 455.688 660.641 438.216C644.028 420.745 631.467 397.288 623.75 369.327C616.032 341.365 613.327 309.505 615.804 275.758C618.281 242.01 625.886 207.107 638.141 173.25C650.395 139.394 667.032 107.319 687.003 79.0496C706.973 50.7801 729.843 26.9297 754.169 9.00306C778.496 -8.92359 803.751 -20.5373 828.341 -25.1054C852.932 -29.6734 876.323 -27.0966 897.041 -17.5376L903.611 -33.1253Z" fill="url(#paint3_radial_176_3)"/>
<path d="M903.611 -33.1253C881.549 -43.3047 856.639 -46.0488 830.453 -41.1842C804.266 -36.3197 777.372 -23.9522 751.467 -4.86202C725.561 14.2281 701.207 39.6266 679.941 69.7308C658.674 99.835 640.957 133.992 627.907 170.045C614.858 206.099 606.758 243.268 604.121 279.206C601.483 315.144 604.364 349.072 612.582 378.848C620.8 408.624 634.177 433.603 651.868 452.209C669.559 470.815 684.423 481.228 708.612 485.533L713.514 469.423C690.8 465.381 677.254 455.688 660.641 438.216C644.028 420.745 631.467 397.288 623.75 369.327C616.032 341.365 613.327 309.505 615.804 275.758C618.281 242.01 625.886 207.107 638.141 173.25C650.395 139.394 667.032 107.319 687.003 79.0496C706.973 50.7801 729.843 26.9297 754.169 9.00306C778.496 -8.92359 803.751 -20.5373 828.341 -25.1054C852.932 -29.6734 876.323 -27.0966 897.041 -17.5376L903.611 -33.1253Z" fill="url(#paint4_radial_176_3)"/>
<path d="M1329.85 -124.136C1357.74 -102.654 1384.28 -81.5504 1399.51 -50.3741C1414.74 -19.1978 1422 14.3849 1420.57 47.0638C1419.14 79.7428 1409.07 110.39 1391.35 135.984C1373.63 161.579 1349.44 183.098 1320.09 194.882L1306.9 174.608C1331.45 164.751 1357.77 148.431 1372.59 127.024C1387.41 105.616 1397.54 71.8175 1398.73 44.484C1399.93 17.1505 1390.64 -17.2283 1377.9 -43.3049C1365.16 -69.3816 1344.34 -90.353 1318.54 -104.005L1329.85 -124.136Z" fill="url(#paint5_linear_176_3)"/>
<path d="M1329.85 -124.136C1357.74 -102.654 1384.28 -81.5504 1399.51 -50.3741C1414.74 -19.1978 1422 14.3849 1420.57 47.0638C1419.14 79.7428 1409.07 110.39 1391.35 135.984C1373.63 161.579 1349.44 183.098 1320.09 194.882L1306.9 174.608C1331.45 164.751 1357.77 148.431 1372.59 127.024C1387.41 105.616 1397.54 71.8175 1398.73 44.484C1399.93 17.1505 1390.64 -17.2283 1377.9 -43.3049C1365.16 -69.3816 1344.34 -90.353 1318.54 -104.005L1329.85 -124.136Z" fill="url(#paint6_radial_176_3)"/>
<g filter="url(#filter0_d_176_3)">
<ellipse cx="53.1963" cy="48.1349" rx="53.1963" ry="48.1349" transform="matrix(0.999572 -0.0292462 0.0407014 0.999171 1158.99 298.506)" fill="url(#paint7_radial_176_3)"/>
<ellipse cx="53.1963" cy="48.1349" rx="53.1963" ry="48.1349" transform="matrix(0.999572 -0.0292462 0.0407014 0.999171 1158.99 298.506)" fill="url(#paint8_radial_176_3)" fill-opacity="0.9"/>
</g>
<g filter="url(#filter1_d_176_3)">
<path d="M894.011 121.959C904.519 116.358 916.328 112.704 928.764 111.207C941.201 109.709 954.021 110.397 966.494 113.231C978.967 116.065 990.847 120.99 1001.46 127.724C1012.07 134.458 1021.2 142.87 1028.33 152.479C1035.46 162.088 1040.45 172.707 1043.02 183.728C1045.59 194.749 1045.68 205.957 1043.3 216.713C1040.91 227.468 1036.09 237.56 1029.11 246.412C1022.13 255.265 1013.14 262.704 1002.63 268.305L948.32 195.132L894.011 121.959Z" fill="url(#paint9_radial_176_3)" shape-rendering="crispEdges"/>
</g>
<path d="M1201.49 51.2545C1209 57.6033 1215.38 64.7799 1220.27 72.3746C1225.17 79.9692 1228.48 87.8332 1230.03 95.5174C1231.57 103.202 1231.31 110.556 1229.26 117.16C1227.22 123.764 1223.42 129.488 1218.1 134.007C1212.78 138.525 1206.03 141.749 1198.24 143.494C1190.45 145.238 1181.78 145.47 1172.71 144.176C1163.64 142.882 1154.35 140.086 1145.38 135.95C1136.41 131.814 1127.94 126.417 1120.43 120.068L1160.96 85.6613L1201.49 51.2545Z" fill="url(#paint10_radial_176_3)"/>
<path d="M1201.49 51.2545C1209 57.6033 1215.38 64.7799 1220.27 72.3746C1225.17 79.9692 1228.48 87.8332 1230.03 95.5174C1231.57 103.202 1231.31 110.556 1229.26 117.16C1227.22 123.764 1223.42 129.488 1218.1 134.007C1212.78 138.525 1206.03 141.749 1198.24 143.494C1190.45 145.238 1181.78 145.47 1172.71 144.176C1163.64 142.882 1154.35 140.086 1145.38 135.95C1136.41 131.814 1127.94 126.417 1120.43 120.068L1160.96 85.6613L1201.49 51.2545Z" fill="url(#paint11_radial_176_3)" fill-opacity="0.8"/>
<path d="M1371.62 329.2C1382.87 320.268 1395.53 312.794 1408.87 307.203C1422.21 301.612 1435.96 298.014 1449.35 296.615C1462.74 295.216 1475.5 296.042 1486.91 299.048C1498.31 302.054 1508.14 307.179 1515.82 314.132C1523.5 321.085 1528.89 329.729 1531.68 339.57C1534.47 349.412 1534.61 360.258 1532.08 371.49C1529.56 382.722 1524.42 394.119 1516.96 405.031C1509.51 415.944 1499.88 426.157 1488.62 435.089L1430.12 382.144L1371.62 329.2Z" fill="url(#paint12_radial_176_3)"/>
<path d="M1371.62 329.2C1382.87 320.268 1395.53 312.794 1408.87 307.203C1422.21 301.612 1435.96 298.014 1449.35 296.615C1462.74 295.216 1475.5 296.042 1486.91 299.048C1498.31 302.054 1508.14 307.179 1515.82 314.132C1523.5 321.085 1528.89 329.729 1531.68 339.57C1534.47 349.412 1534.61 360.258 1532.08 371.49C1529.56 382.722 1524.42 394.119 1516.96 405.031C1509.51 415.944 1499.88 426.157 1488.62 435.089L1430.12 382.144L1371.62 329.2Z" fill="url(#paint13_radial_176_3)" fill-opacity="0.8"/>
<ellipse cx="55.5535" cy="65.7482" rx="55.5535" ry="65.7482" transform="matrix(-0.0206603 -0.999787 0.99989 -0.0148411 811.727 422.004)" fill="url(#paint14_radial_176_3)"/>
<ellipse cx="47.1716" cy="48.6899" rx="47.1716" ry="48.6899" transform="matrix(-0.0206603 -0.999787 0.99989 -0.0148411 1018.38 473.307)" fill="url(#paint15_radial_176_3)"/>
<g filter="url(#filter2_i_176_3)">
<ellipse cx="18.691" cy="23.311" rx="18.691" ry="23.311" transform="matrix(-0.0206603 -0.999787 0.99989 -0.0148411 725.255 207.676)" fill="url(#paint16_linear_176_3)"/>
</g>
<g filter="url(#filter3_i_176_3)">
<ellipse cx="22.0523" cy="19.7577" rx="22.0523" ry="19.7577" transform="matrix(0.999942 -0.0107739 0.014999 0.999888 1650.5 325.526)" fill="url(#paint17_linear_176_3)"/>
</g>
<g filter="url(#filter4_i_176_3)">
<ellipse cx="601" cy="167.458" rx="65.5" ry="62" transform="rotate(-90 601 167.458)" fill="url(#paint18_radial_176_3)"/>
</g>
<g filter="url(#filter5_i_176_3)">
<ellipse cx="98.8112" cy="106.83" rx="98.8112" ry="106.83" transform="matrix(0.723917 0.689888 -0.798581 0.601887 1601.06 -26.8466)" fill="url(#paint19_radial_176_3)"/>
</g>
<path d="M1774.67 244.366C1793.56 248.515 1811.13 257.307 1826.23 270.171C1841.32 283.034 1853.61 299.68 1862.29 319.021C1870.97 338.363 1875.84 359.967 1876.59 382.423C1877.34 404.88 1873.95 427.685 1866.64 449.352C1859.33 471.019 1848.27 491.06 1834.17 508.169C1820.07 525.279 1803.26 539.072 1784.82 548.648C1766.39 558.225 1746.75 563.371 1727.18 563.75C1707.62 564.129 1688.57 559.733 1671.27 550.848L1696.26 494.637C1706.99 500.15 1718.81 502.878 1730.96 502.643C1743.1 502.408 1755.29 499.215 1766.72 493.272C1778.16 487.329 1788.6 478.77 1797.35 468.152C1806.09 457.535 1812.96 445.098 1817.5 431.652C1822.03 418.207 1824.14 404.055 1823.67 390.119C1823.21 376.183 1820.18 362.777 1814.8 350.774C1809.41 338.772 1801.79 328.442 1792.42 320.46C1783.05 312.477 1772.15 307.021 1760.42 304.446L1774.67 244.366Z" fill="url(#paint20_radial_176_3)"/>
<ellipse cx="31.1392" cy="10.7139" rx="31.1392" ry="10.7139" transform="matrix(0.156125 -0.987737 0.993617 0.112807 1752.28 304.113)" fill="white"/>
<path d="M493.695 298.382C502.97 306.23 510.71 315.226 516.472 324.859C522.234 334.492 525.906 344.571 527.278 354.523C528.65 364.474 527.696 374.102 524.469 382.857C521.243 391.612 515.808 399.323 508.474 405.549C501.139 411.775 492.05 416.394 481.725 419.143C471.4 421.892 460.041 422.716 448.297 421.57C436.553 420.423 424.654 417.327 413.278 412.46C401.903 407.592 391.275 401.048 382 393.201L437.848 345.791L493.695 298.382Z" fill="url(#paint21_radial_176_3)"/>
<path d="M493.695 298.382C502.97 306.23 510.71 315.226 516.472 324.859C522.234 334.492 525.906 344.571 527.278 354.523C528.65 364.474 527.696 374.102 524.469 382.857C521.243 391.612 515.808 399.323 508.474 405.549C501.139 411.775 492.05 416.394 481.725 419.143C471.4 421.892 460.041 422.716 448.297 421.57C436.553 420.423 424.654 417.327 413.278 412.46C401.903 407.592 391.275 401.048 382 393.201L437.848 345.791L493.695 298.382Z" fill="url(#paint22_radial_176_3)" fill-opacity="0.8"/>
<g filter="url(#filter6_d_176_3)">
<ellipse cx="62.7489" cy="58.6234" rx="62.7489" ry="58.6234" transform="matrix(0.0273434 0.999626 -0.999247 0.0387993 401.727 25.9578)" fill="url(#paint23_radial_176_3)"/>
<ellipse cx="62.7489" cy="58.6234" rx="62.7489" ry="58.6234" transform="matrix(0.0273434 0.999626 -0.999247 0.0387993 401.727 25.9578)" fill="url(#paint24_radial_176_3)" fill-opacity="0.9"/>
</g>
<path d="M312.823 321.105C328.264 321.105 343.438 324.645 356.85 331.377C370.262 338.108 381.449 347.799 389.308 359.493C397.166 371.187 401.426 384.481 401.667 398.065C401.908 411.649 398.121 425.054 390.68 436.958L377.945 430.796C384.168 420.839 387.336 409.627 387.134 398.265C386.933 386.903 383.37 375.783 376.797 366.002C370.223 356.221 360.866 348.115 349.648 342.485C338.43 336.854 325.738 333.893 312.823 333.893V321.105Z" fill="url(#paint25_linear_176_3)"/>
<g filter="url(#filter7_i_176_3)">
<path d="M356.266 273.126C362.489 273.033 367.647 278.48 367.788 285.291C367.928 292.102 362.998 297.699 356.776 297.791C350.554 297.883 345.396 292.437 345.255 285.626C345.114 278.814 350.044 273.218 356.266 273.126Z" fill="url(#paint26_radial_176_3)"/>
</g>
<ellipse cx="54.5138" cy="53.9159" rx="54.5138" ry="53.9159" transform="matrix(-0.128185 -0.99175 0.99248 -0.122411 223.976 414.958)" fill="url(#paint27_radial_176_3)"/>
<path d="M89.7588 213.271C92.6401 225.073 93.6036 236.902 92.5943 248.081C91.585 259.26 88.6227 269.571 83.8765 278.424C79.1303 287.278 72.6932 294.501 64.9326 299.681C57.1721 304.862 48.2401 307.898 38.6467 308.616C29.0533 309.334 18.9863 307.721 9.02051 303.868C-0.945264 300.014 -10.6147 293.997 -19.4356 286.159C-28.2565 278.322 -36.0563 268.817 -42.3895 258.187C-48.7227 247.558 -53.4653 236.013 -56.3466 224.21L16.7061 218.74L89.7588 213.271Z" fill="url(#paint28_radial_176_3)"/>
<path d="M89.7588 213.271C92.6401 225.073 93.6036 236.902 92.5943 248.081C91.585 259.26 88.6227 269.571 83.8765 278.424C79.1303 287.278 72.6932 294.501 64.9326 299.681C57.1721 304.862 48.2401 307.898 38.6467 308.616C29.0533 309.334 18.9863 307.721 9.02051 303.868C-0.945264 300.014 -10.6147 293.997 -19.4356 286.159C-28.2565 278.322 -36.0563 268.817 -42.3895 258.187C-48.7227 247.558 -53.4653 236.013 -56.3466 224.21L16.7061 218.74L89.7588 213.271Z" fill="url(#paint29_radial_176_3)" fill-opacity="0.8"/>
<ellipse cx="103.5" cy="43.458" rx="86.5" ry="82.5" transform="rotate(-90 103.5 43.458)" fill="url(#paint30_linear_176_3)"/>
<path d="M532.064 208.507C532.064 208.312 532.133 208.146 532.269 208.009C532.406 207.872 532.575 207.804 532.777 207.804L535.814 207.765V204.737C535.814 204.549 535.883 204.389 536.019 204.259C536.156 204.122 536.319 204.054 536.508 204.054C536.696 204.054 536.859 204.122 536.996 204.259C537.133 204.389 537.201 204.549 537.201 204.737V207.755L540.267 207.716C540.463 207.716 540.632 207.787 540.775 207.931C540.912 208.067 540.98 208.233 540.98 208.429C540.98 208.624 540.912 208.79 540.775 208.927C540.632 209.063 540.463 209.132 540.267 209.132L537.201 209.171V212.179C537.201 212.368 537.133 212.53 536.996 212.667C536.859 212.804 536.696 212.872 536.508 212.872C536.319 212.872 536.156 212.804 536.019 212.667C535.883 212.53 535.814 212.368 535.814 212.179V209.181L532.787 209.22C532.592 209.22 532.422 209.151 532.279 209.015C532.136 208.878 532.064 208.709 532.064 208.507Z" fill="white"/>
<g filter="url(#filter8_d_176_3)">
<path d="M355.549 86.958C349.961 82.8407 345.355 77.8606 341.993 72.3022C338.63 66.7437 336.578 60.7158 335.953 54.5625C335.327 48.4092 336.142 42.2511 338.349 36.4398C340.556 30.6284 344.113 25.2776 348.816 20.6929C353.519 16.1083 359.277 12.3794 365.761 9.71939C372.245 7.05934 379.327 5.52014 386.604 5.1897C393.881 4.85925 401.21 5.74402 408.172 7.79348C415.134 9.84295 421.594 13.017 427.181 17.1343L391.365 52.0462L355.549 86.958Z" fill="url(#paint31_radial_176_3)" shape-rendering="crispEdges"/>
</g>
</g>
<defs>
<filter id="filter0_d_176_3" x="1158.91" y="296.925" width="114.421" height="104.241" filterUnits="userSpaceOnUse" color-interpolation-filters="sRGB">
<feFlood flood-opacity="0" result="BackgroundImageFix"/>
<feColorMatrix in="SourceAlpha" type="matrix" values="0 0 0 0 0 0 0 0 0 0 0 0 0 0 0 0 0 0 127 0" result="hardAlpha"/>
<feOffset dx="2" dy="4"/>
<feGaussianBlur stdDeviation="2"/>
<feComposite in2="hardAlpha" operator="out"/>
<feColorMatrix type="matrix" values="0 0 0 0 0.829167 0 0 0 0 0.0656424 0 0 0 0 0.251364 0 0 0 1 0"/>
<feBlend mode="normal" in2="BackgroundImageFix" result="effect1_dropShadow_176_3"/>
<feBlend mode="normal" in="SourceGraphic" in2="effect1_dropShadow_176_3" result="shape"/>
</filter>
<filter id="filter1_d_176_3" x="894.011" y="110.435" width="153.01" height="159.87" filterUnits="userSpaceOnUse" color-interpolation-filters="sRGB">
<feFlood flood-opacity="0" result="BackgroundImageFix"/>
<feColorMatrix in="SourceAlpha" type="matrix" values="0 0 0 0 0 0 0 0 0 0 0 0 0 0 0 0 0 0 127 0" result="hardAlpha"/>
<feOffset dx="1" dy="1"/>
<feGaussianBlur stdDeviation="0.5"/>
<feComposite in2="hardAlpha" operator="out"/>
<feColorMatrix type="matrix" values="0 0 0 0 0.85098 0 0 0 0 0.439216 0 0 0 0 0.537255 0 0 0 1 0"/>
<feBlend mode="normal" in2="BackgroundImageFix" result="effect1_dropShadow_176_3"/>
<feBlend mode="normal" in="SourceGraphic" in2="effect1_dropShadow_176_3" result="shape"/>
</filter>
<filter id="filter2_i_176_3" x="724.866" y="169.953" width="46.6233" height="41.3806" filterUnits="userSpaceOnUse" color-interpolation-filters="sRGB">
<feFlood flood-opacity="0" result="BackgroundImageFix"/>
<feBlend mode="normal" in="SourceGraphic" in2="BackgroundImageFix" result="shape"/>
<feColorMatrix in="SourceAlpha" type="matrix" values="0 0 0 0 0 0 0 0 0 0 0 0 0 0 0 0 0 0 127 0" result="hardAlpha"/>
<feOffset dy="4"/>
<feGaussianBlur stdDeviation="2"/>
<feComposite in2="hardAlpha" operator="arithmetic" k2="-1" k3="1"/>
<feColorMatrix type="matrix" values="0 0 0 0 0.829167 0 0 0 0 0.0656424 0 0 0 0 0.251364 0 0 0 1 0"/>
<feBlend mode="normal" in2="shape" result="effect1_innerShadow_176_3"/>
</filter>
<filter id="filter3_i_176_3" x="1650.79" y="325.287" width="44.106" height="43.5139" filterUnits="userSpaceOnUse" color-interpolation-filters="sRGB">
<feFlood flood-opacity="0" result="BackgroundImageFix"/>
<feBlend mode="normal" in="SourceGraphic" in2="BackgroundImageFix" result="shape"/>
<feColorMatrix in="SourceAlpha" type="matrix" values="0 0 0 0 0 0 0 0 0 0 0 0 0 0 0 0 0 0 127 0" result="hardAlpha"/>
<feOffset dy="4"/>
<feGaussianBlur stdDeviation="2"/>
<feComposite in2="hardAlpha" operator="arithmetic" k2="-1" k3="1"/>
<feColorMatrix type="matrix" values="0 0 0 0 0.829167 0 0 0 0 0.0656424 0 0 0 0 0.251364 0 0 0 1 0"/>
<feBlend mode="normal" in2="shape" result="effect1_innerShadow_176_3"/>
</filter>
<filter id="filter4_i_176_3" x="539" y="101.958" width="125" height="132" filterUnits="userSpaceOnUse" color-interpolation-filters="sRGB">
<feFlood flood-opacity="0" result="BackgroundImageFix"/>
<feBlend mode="normal" in="SourceGraphic" in2="BackgroundImageFix" result="shape"/>
<feColorMatrix in="SourceAlpha" type="matrix" values="0 0 0 0 0 0 0 0 0 0 0 0 0 0 0 0 0 0 127 0" result="hardAlpha"/>
<feOffset dx="1" dy="2"/>
<feGaussianBlur stdDeviation="0.5"/>
<feComposite in2="hardAlpha" operator="arithmetic" k2="-1" k3="1"/>
<feColorMatrix type="matrix" values="0 0 0 0 1 0 0 0 0 1 0 0 0 0 1 0 0 0 1 0"/>
<feBlend mode="normal" in2="shape" result="effect1_innerShadow_176_3"/>
</filter>
<filter id="filter5_i_176_3" x="1475.94" y="11.9123" width="223.67" height="188.419" filterUnits="userSpaceOnUse" color-interpolation-filters="sRGB">
<feFlood flood-opacity="0" result="BackgroundImageFix"/>
<feBlend mode="normal" in="SourceGraphic" in2="BackgroundImageFix" result="shape"/>
<feColorMatrix in="SourceAlpha" type="matrix" values="0 0 0 0 0 0 0 0 0 0 0 0 0 0 0 0 0 0 127 0" result="hardAlpha"/>
<feOffset dx="1" dy="2"/>
<feGaussianBlur stdDeviation="0.5"/>
<feComposite in2="hardAlpha" operator="arithmetic" k2="-1" k3="1"/>
<feColorMatrix type="matrix" values="0 0 0 0 1 0 0 0 0 1 0 0 0 0 1 0 0 0 1 0"/>
<feBlend mode="normal" in2="shape" result="effect1_innerShadow_176_3"/>
</filter>
<filter id="filter6_d_176_3" x="284.258" y="28.1904" width="125.21" height="133.535" filterUnits="userSpaceOnUse" color-interpolation-filters="sRGB">
<feFlood flood-opacity="0" result="BackgroundImageFix"/>
<feColorMatrix in="SourceAlpha" type="matrix" values="0 0 0 0 0 0 0 0 0 0 0 0 0 0 0 0 0 0 127 0" result="hardAlpha"/>
<feOffset dx="2" dy="4"/>
<feGaussianBlur stdDeviation="2"/>
<feComposite in2="hardAlpha" operator="out"/>
<feColorMatrix type="matrix" values="0 0 0 0 0.829167 0 0 0 0 0.0656424 0 0 0 0 0.251364 0 0 0 1 0"/>
<feBlend mode="normal" in2="BackgroundImageFix" result="effect1_dropShadow_176_3"/>
<feBlend mode="normal" in="SourceGraphic" in2="effect1_dropShadow_176_3" result="shape"/>
</filter>
<filter id="filter7_i_176_3" x="345.252" y="273.124" width="22.5388" height="28.6678" filterUnits="userSpaceOnUse" color-interpolation-filters="sRGB">
<feFlood flood-opacity="0" result="BackgroundImageFix"/>
<feBlend mode="normal" in="SourceGraphic" in2="BackgroundImageFix" result="shape"/>
<feColorMatrix in="SourceAlpha" type="matrix" values="0 0 0 0 0 0 0 0 0 0 0 0 0 0 0 0 0 0 127 0" result="hardAlpha"/>
<feOffset dy="4"/>
<feGaussianBlur stdDeviation="2"/>
<feComposite in2="hardAlpha" operator="arithmetic" k2="-1" k3="1"/>
<feColorMatrix type="matrix" values="0 0 0 0 0.829167 0 0 0 0 0.0656424 0 0 0 0 0.251364 0 0 0 1 0"/>
<feBlend mode="normal" in2="shape" result="effect1_innerShadow_176_3"/>
</filter>
<filter id="filter8_d_176_3" x="335.748" y="5.12213" width="93.4329" height="83.8359" filterUnits="userSpaceOnUse" color-interpolation-filters="sRGB">
<feFlood flood-opacity="0" result="BackgroundImageFix"/>
<feColorMatrix in="SourceAlpha" type="matrix" values="0 0 0 0 0 0 0 0 0 0 0 0 0 0 0 0 0 0 127 0" result="hardAlpha"/>
<feOffset dx="1" dy="1"/>
<feGaussianBlur stdDeviation="0.5"/>
<feComposite in2="hardAlpha" operator="out"/>
<feColorMatrix type="matrix" values="0 0 0 0 0.85098 0 0 0 0 0.439216 0 0 0 0 0.537255 0 0 0 1 0"/>
<feBlend mode="normal" in2="BackgroundImageFix" result="effect1_dropShadow_176_3"/>
<feBlend mode="normal" in="SourceGraphic" in2="effect1_dropShadow_176_3" result="shape"/>
</filter>
<linearGradient id="paint0_linear_176_3" x1="200.979" y1="0" x2="200.979" y2="1938.59" gradientUnits="userSpaceOnUse">
<stop offset="0.624057" stop-color="#38131C"/>
<stop offset="0.752785" stop-color="#8C4E5C"/>
<stop offset="1" stop-color="#D31140"/>
</linearGradient>
<linearGradient id="paint1_linear_176_3" x1="1494.23" y1="-39.3496" x2="1054.9" y2="77.4552" gradientUnits="userSpaceOnUse">
<stop stop-color="#D9D9D9"/>
<stop offset="1" stop-color="#D31140"/>
</linearGradient>
<radialGradient id="paint2_radial_176_3" cx="0" cy="0" r="1" gradientTransform="matrix(98.9301 153.34 -162.783 112.553 1216.97 33.1009)" gradientUnits="userSpaceOnUse">
<stop offset="0.715" stop-color="white"/>
<stop offset="0.885" stop-color="#D31140"/>
</radialGradient>
<radialGradient id="paint3_radial_176_3" cx="0" cy="0" r="1" gradientTransform="matrix(-4.97991 178.521 -188.634 2.00235 746.666 250.329)" gradientUnits="userSpaceOnUse">
<stop offset="0.67" stop-color="#D31140"/>
<stop offset="0.85" stop-color="#EBEBEB"/>
</radialGradient>
<radialGradient id="paint4_radial_176_3" cx="0" cy="0" r="1" gradientTransform="matrix(39.009 140.016 -303.433 77.9335 758.74 98.9499)" gradientUnits="userSpaceOnUse">
<stop offset="0.675" stop-color="#D31140"/>
<stop offset="0.72" stop-color="white" stop-opacity="0"/>
</radialGradient>
<linearGradient id="paint5_linear_176_3" x1="1068.73" y1="-108.965" x2="1397.58" y2="127.358" gradientUnits="userSpaceOnUse">
<stop stop-color="#D9D9D9"/>
<stop offset="1" stop-color="#D31140"/>
</linearGradient>
<radialGradient id="paint6_radial_176_3" cx="0" cy="0" r="1" gradientTransform="matrix(-39.693 167.191 -165.938 -31.6348 1285.18 31.0793)" gradientUnits="userSpaceOnUse">
<stop offset="0.715" stop-color="white"/>
<stop offset="0.885" stop-color="#D31140"/>
</radialGradient>
<radialGradient id="paint7_radial_176_3" cx="0" cy="0" r="1" gradientUnits="userSpaceOnUse" gradientTransform="translate(53.1963 48.1349) rotate(90) scale(48.1349 53.1963)">
<stop offset="0.915" stop-color="#D31140"/>
<stop offset="0.97" stop-color="#D9D9D9"/>
</radialGradient>
<radialGradient id="paint8_radial_176_3" cx="0" cy="0" r="1" gradientTransform="matrix(30.5328 82.6119 -77.3661 24.2589 22.6634 13.6579)" gradientUnits="userSpaceOnUse">
<stop stop-color="#D31140"/>
<stop offset="1" stop-color="#F2C8D2"/>
</radialGradient>
<radialGradient id="paint9_radial_176_3" cx="0" cy="0" r="1" gradientTransform="matrix(80.0108 -42.6532 54.3084 73.1728 948.32 195.132)" gradientUnits="userSpaceOnUse">
<stop offset="0.035" stop-color="#D97089" stop-opacity="0.8"/>
<stop offset="0.345" stop-color="#D31140"/>
<stop offset="0.615" stop-color="#D31140"/>
<stop offset="1" stop-color="#D9D9D9"/>
</radialGradient>
<radialGradient id="paint10_radial_176_3" cx="0" cy="0" r="1" gradientTransform="matrix(57.1382 48.3454 -40.531 34.4068 1160.96 85.6613)" gradientUnits="userSpaceOnUse">
<stop stop-color="#D97089" stop-opacity="0.8"/>
<stop offset="0.512576" stop-color="#D31140"/>
<stop offset="0.615" stop-color="#D31140"/>
<stop offset="1" stop-color="#D9D9D9"/>
</radialGradient>
<radialGradient id="paint11_radial_176_3" cx="0" cy="0" r="1" gradientTransform="matrix(12.019 9.2421 -64.8743 60.5976 1158.51 85.6612)" gradientUnits="userSpaceOnUse">
<stop stop-color="#D31140"/>
<stop offset="0.58" stop-color="#D31140" stop-opacity="0.3"/>
<stop offset="0.625" stop-color="#D31140" stop-opacity="0"/>
</radialGradient>
<radialGradient id="paint12_radial_176_3" cx="0" cy="0" r="1" gradientTransform="matrix(85.6962 -68.0124 58.5008 52.9446 1430.12 382.144)" gradientUnits="userSpaceOnUse">
<stop stop-color="#D97089" stop-opacity="0.8"/>
<stop offset="0.512576" stop-color="#D31140"/>
<stop offset="0.615" stop-color="#D31140"/>
<stop offset="1" stop-color="#D9D9D9"/>
</radialGradient>
<radialGradient id="paint13_radial_176_3" cx="0" cy="0" r="1" gradientTransform="matrix(16.4159 -14.3698 103.232 85.1216 1430.05 385.201)" gradientUnits="userSpaceOnUse">
<stop stop-color="#D31140"/>
<stop offset="0.58" stop-color="#D31140" stop-opacity="0.3"/>
<stop offset="0.625" stop-color="#D31140" stop-opacity="0"/>
</radialGradient>
<radialGradient id="paint14_radial_176_3" cx="0" cy="0" r="1" gradientUnits="userSpaceOnUse" gradientTransform="translate(55.5535 65.7482) rotate(90) scale(65.7482 55.5535)">
<stop stop-color="#D9D9D9"/>
<stop offset="0.61" stop-color="#D31140"/>
<stop offset="0.805" stop-color="#D31140"/>
<stop offset="1" stop-color="#D9D9D9"/>
</radialGradient>
<radialGradient id="paint15_radial_176_3" cx="0" cy="0" r="1" gradientUnits="userSpaceOnUse" gradientTransform="translate(47.1716 48.6899) rotate(90) scale(48.6899 47.1716)">
<stop offset="0.175" stop-color="#D31140"/>
<stop offset="0.43" stop-color="#D9D9D9"/>
<stop offset="0.565" stop-color="#D9D9D9"/>
<stop offset="1" stop-color="#D31140"/>
</radialGradient>
<linearGradient id="paint16_linear_176_3" x1="38.0777" y1="-0.236954" x2="12.9848" y2="43.3359" gradientUnits="userSpaceOnUse">
<stop stop-color="#D9D9D9"/>
<stop offset="1" stop-color="#D31140"/>
</linearGradient>
<linearGradient id="paint17_linear_176_3" x1="44.9254" y1="-0.200835" x2="27.5532" y2="41.7911" gradientUnits="userSpaceOnUse">
<stop stop-color="#D9D9D9"/>
<stop offset="1" stop-color="#D31140"/>
</linearGradient>
<radialGradient id="paint18_radial_176_3" cx="0" cy="0" r="1" gradientTransform="matrix(-103.58 -2.50847 1.72069 -69.9834 628.638 202.404)" gradientUnits="userSpaceOnUse">
<stop offset="0.215" stop-color="#D9D9D9"/>
<stop offset="1" stop-color="#D31140"/>
</radialGradient>
<radialGradient id="paint19_radial_176_3" cx="0" cy="0" r="1" gradientTransform="matrix(-156.257 -4.32225 2.59578 -120.586 140.506 167.043)" gradientUnits="userSpaceOnUse">
<stop offset="0.215" stop-color="#D9D9D9"/>
<stop offset="1" stop-color="#D31140"/>
</radialGradient>
<radialGradient id="paint20_radial_176_3" cx="0" cy="0" r="1" gradientTransform="matrix(137.121 15.9803 -26.0047 160.272 1737.13 402.705)" gradientUnits="userSpaceOnUse">
<stop offset="0.75" stop-color="#D31140"/>
<stop offset="1" stop-color="white"/>
</radialGradient>
<radialGradient id="paint21_radial_176_3" cx="0" cy="0" r="1" gradientTransform="matrix(70.6258 59.7575 -55.8478 47.4092 437.848 345.791)" gradientUnits="userSpaceOnUse">
<stop stop-color="#D97089" stop-opacity="0.8"/>
<stop offset="0.512576" stop-color="#D31140"/>
<stop offset="0.615" stop-color="#D31140"/>
<stop offset="1" stop-color="#D9D9D9"/>
</radialGradient>
<radialGradient id="paint22_radial_176_3" cx="0" cy="0" r="1" gradientTransform="matrix(14.9337 11.3578 -89.8529 83.1064 434.647 345.938)" gradientUnits="userSpaceOnUse">
<stop stop-color="#D31140"/>
<stop offset="0.58" stop-color="#D31140" stop-opacity="0.3"/>
<stop offset="0.625" stop-color="#D31140" stop-opacity="0"/>
</radialGradient>
<radialGradient id="paint23_radial_176_3" cx="0" cy="0" r="1" gradientUnits="userSpaceOnUse" gradientTransform="translate(62.7489 58.6234) rotate(90) scale(58.6234 62.7489)">
<stop offset="0.915" stop-color="#D31140"/>
<stop offset="0.97" stop-color="#D9D9D9"/>
</radialGradient>
<radialGradient id="paint24_radial_176_3" cx="0" cy="0" r="1" gradientTransform="matrix(36.0157 100.613 -91.259 29.5449 26.7332 16.6339)" gradientUnits="userSpaceOnUse">
<stop stop-color="#D31140"/>
<stop offset="1" stop-color="#F2C8D2"/>
</radialGradient>
<linearGradient id="paint25_linear_176_3" x1="223.969" y1="399.284" x2="401.678" y2="399.284" gradientUnits="userSpaceOnUse">
<stop stop-color="#D9D9D9"/>
<stop offset="1" stop-color="#D31140"/>
</linearGradient>
<radialGradient id="paint26_radial_176_3" cx="0" cy="0" r="1" gradientTransform="matrix(-33.0449 167.101 -1774 -379.753 311.184 132.149)" gradientUnits="userSpaceOnUse">
<stop offset="0.585" stop-color="#D9D9D9"/>
<stop offset="1" stop-color="#D31140"/>
</radialGradient>
<radialGradient id="paint27_radial_176_3" cx="0" cy="0" r="1" gradientUnits="userSpaceOnUse" gradientTransform="translate(54.5138 53.9159) rotate(90) scale(53.9159 54.5138)">
<stop offset="0.295" stop-color="#D31140"/>
<stop offset="0.605" stop-color="#D9D9D9"/>
<stop offset="0.695" stop-color="#D9D9D9"/>
<stop offset="1" stop-color="#D31140"/>
</radialGradient>
<radialGradient id="paint28_radial_176_3" cx="0" cy="0" r="1" gradientTransform="matrix(21.9406 89.8754 -73.0527 5.46954 16.7062 218.74)" gradientUnits="userSpaceOnUse">
<stop stop-color="#D97089" stop-opacity="0.8"/>
<stop offset="0.512576" stop-color="#D31140"/>
<stop offset="0.615" stop-color="#D31140"/>
<stop offset="1" stop-color="#D9D9D9"/>
</radialGradient>
<radialGradient id="paint29_radial_176_3" cx="0" cy="0" r="1" gradientTransform="matrix(5.39118 17.9708 -121.553 14.3224 14.0317 216.976)" gradientUnits="userSpaceOnUse">
<stop stop-color="#D31140"/>
<stop offset="0.58" stop-color="#D31140" stop-opacity="0.3"/>
<stop offset="0.625" stop-color="#D31140" stop-opacity="0"/>
</radialGradient>
<linearGradient id="paint30_linear_176_3" x1="103.5" y1="-39.042" x2="103.5" y2="125.958" gradientUnits="userSpaceOnUse">
<stop stop-color="#D9D9D9"/>
<stop offset="0.645" stop-color="#D55876"/>
<stop offset="1" stop-color="#D31140"/>
</linearGradient>
<radialGradient id="paint31_radial_176_3" cx="0" cy="0" r="1" gradientTransform="matrix(-42.5492 -31.3532 35.8161 -34.9118 391.365 52.0461)" gradientUnits="userSpaceOnUse">
<stop offset="0.035" stop-color="#D97089" stop-opacity="0.8"/>
<stop offset="0.345" stop-color="#D31140"/>
<stop offset="0.615" stop-color="#D31140"/>
<stop offset="1" stop-color="#D9D9D9"/>
</radialGradient>
<clipPath id="clip0_176_3">
<rect width="401.958" height="1938.59" fill="white" transform="matrix(0 -1 1 0 0 401.958)"/>
</clipPath>
</defs>
</svg>
