<svg width="1939" height="393" viewBox="0 0 1939 393" fill="none" xmlns="http://www.w3.org/2000/svg">
<g clip-path="url(#clip0_4008_4)">
<rect width="393" height="1939" transform="matrix(0 1 -1 0 1939 0)" fill="url(#paint0_linear_4008_4)"/>
<g style="mix-blend-mode:saturation">
<path d="M855.511 207.076C893.503 196.251 930.212 186.359 967.317 192.395C1004.42 198.431 1037.86 212.814 1064.33 234.126C1090.79 255.438 1109.38 282.943 1118.26 313.929C1127.13 344.916 1125.99 378.316 1114.94 410.835L1089.72 410.835C1098.97 383.635 1104.74 350.503 1097.32 324.584C1089.89 298.666 1068.7 269.174 1046.56 251.349C1024.42 233.523 988.865 220.4 957.83 215.351C926.794 210.303 894.281 215.351 864.366 229.189L855.511 207.076Z" fill="url(#paint1_linear_4008_4)"/>
<path d="M855.511 207.076C893.503 196.251 930.212 186.359 967.317 192.395C1004.42 198.431 1037.86 212.814 1064.33 234.126C1090.79 255.438 1109.38 282.943 1118.26 313.929C1127.13 344.916 1125.99 378.316 1114.94 410.835L1089.72 410.835C1098.97 383.635 1104.74 350.503 1097.32 324.584C1089.89 298.666 1068.7 269.174 1046.56 251.349C1024.42 233.523 988.865 220.4 957.83 215.351C926.794 210.303 894.281 215.351 864.366 229.189L855.511 207.076Z" fill="url(#paint2_radial_4008_4)"/>
<path d="M1272.39 435.083C1294.45 445.263 1319.36 448.007 1345.55 443.142C1371.73 438.278 1398.63 425.91 1424.53 406.82C1450.44 387.73 1474.79 362.331 1496.06 332.227C1517.33 302.123 1535.04 267.966 1548.09 231.912C1561.14 195.859 1569.24 158.69 1571.88 122.752C1574.52 86.8138 1571.64 52.8863 1563.42 23.1098C1555.2 -6.66666 1541.82 -31.6456 1524.13 -50.2512C1506.44 -68.8567 1491.58 -79.2706 1467.39 -83.5752L1462.49 -67.4654C1485.2 -63.4231 1498.75 -53.7301 1515.36 -36.2585C1531.97 -18.787 1544.53 4.66958 1552.25 32.6312C1559.97 60.5929 1562.67 92.4526 1560.2 126.2C1557.72 159.948 1550.11 194.851 1537.86 228.708C1525.61 262.564 1508.97 294.639 1489 322.908C1469.03 351.178 1446.16 375.028 1421.83 392.955C1397.5 410.881 1372.25 422.495 1347.66 427.063C1323.07 431.631 1299.68 429.054 1278.96 419.495L1272.39 435.083Z" fill="url(#paint3_radial_4008_4)"/>
<path d="M1272.39 435.083C1294.45 445.263 1319.36 448.007 1345.55 443.142C1371.73 438.278 1398.63 425.91 1424.53 406.82C1450.44 387.73 1474.79 362.331 1496.06 332.227C1517.33 302.123 1535.04 267.966 1548.09 231.912C1561.14 195.859 1569.24 158.69 1571.88 122.752C1574.52 86.8138 1571.64 52.8863 1563.42 23.1098C1555.2 -6.66666 1541.82 -31.6456 1524.13 -50.2512C1506.44 -68.8567 1491.58 -79.2706 1467.39 -83.5752L1462.49 -67.4654C1485.2 -63.4231 1498.75 -53.7301 1515.36 -36.2585C1531.97 -18.787 1544.53 4.66958 1552.25 32.6312C1559.97 60.5929 1562.67 92.4526 1560.2 126.2C1557.72 159.948 1550.11 194.851 1537.86 228.708C1525.61 262.564 1508.97 294.639 1489 322.908C1469.03 351.178 1446.16 375.028 1421.83 392.955C1397.5 410.881 1372.25 422.495 1347.66 427.063C1323.07 431.631 1299.68 429.054 1278.96 419.495L1272.39 435.083Z" fill="url(#paint4_radial_4008_4)"/>
<path d="M846.151 526.094C818.259 504.613 791.721 483.509 776.49 452.332C761.259 421.156 754.001 387.573 755.433 354.894C756.864 322.216 766.935 291.568 784.653 265.974C802.371 240.38 826.562 218.861 855.911 207.076L869.1 227.351C844.552 237.207 818.235 253.527 803.415 274.935C788.595 296.342 778.465 330.141 777.268 357.474C776.071 384.808 785.359 419.187 798.099 445.263C810.838 471.34 831.66 492.311 857.463 505.963L846.151 526.094Z" fill="url(#paint5_linear_4008_4)"/>
<path d="M846.151 526.094C818.259 504.613 791.721 483.509 776.49 452.332C761.259 421.156 754.001 387.573 755.433 354.894C756.864 322.216 766.935 291.568 784.653 265.974C802.371 240.38 826.562 218.861 855.911 207.076L869.1 227.351C844.552 237.207 818.235 253.527 803.415 274.935C788.595 296.342 778.465 330.141 777.268 357.474C776.071 384.808 785.359 419.187 798.099 445.263C810.838 471.34 831.66 492.311 857.463 505.963L846.151 526.094Z" fill="url(#paint6_radial_4008_4)"/>
<g filter="url(#filter0_d_4008_4)">
<ellipse cx="53.1963" cy="48.1349" rx="53.1963" ry="48.1349" transform="matrix(-0.999572 0.0292462 -0.0407014 -0.999171 1017.01 103.452)" fill="url(#paint7_radial_4008_4)"/>
<ellipse cx="53.1963" cy="48.1349" rx="53.1963" ry="48.1349" transform="matrix(-0.999572 0.0292462 -0.0407014 -0.999171 1017.01 103.452)" fill="url(#paint8_radial_4008_4)" fill-opacity="0.9"/>
</g>
<g filter="url(#filter1_d_4008_4)">
<path d="M1281.99 279.999C1271.48 285.6 1259.67 289.254 1247.24 290.752C1234.8 292.249 1221.98 291.561 1209.51 288.727C1197.03 285.893 1185.15 280.969 1174.54 274.234C1163.93 267.5 1154.8 259.088 1147.67 249.479C1140.54 239.87 1135.55 229.252 1132.98 218.23C1130.41 207.209 1130.32 196.001 1132.7 185.245C1135.09 174.49 1139.91 164.398 1146.89 155.546C1153.87 146.694 1162.87 139.255 1173.37 133.653L1227.68 206.826L1281.99 279.999Z" fill="url(#paint9_radial_4008_4)" shape-rendering="crispEdges"/>
</g>
<path d="M974.507 350.704C967.003 344.355 960.622 337.178 955.726 329.584C950.831 321.989 947.517 314.125 945.975 306.441C944.433 298.757 944.692 291.403 946.738 284.799C948.784 278.194 952.577 272.47 957.9 267.952C963.222 263.433 969.971 260.21 977.759 258.465C985.548 256.72 994.225 256.488 1003.29 257.782C1012.36 259.077 1021.65 261.872 1030.62 266.008C1039.59 270.145 1048.07 275.541 1055.57 281.89L1015.04 316.297L974.507 350.704Z" fill="url(#paint10_radial_4008_4)"/>
<path d="M974.507 350.704C967.003 344.355 960.622 337.178 955.726 329.584C950.831 321.989 947.517 314.125 945.975 306.441C944.433 298.757 944.692 291.403 946.738 284.799C948.784 278.194 952.577 272.47 957.9 267.952C963.222 263.433 969.971 260.21 977.759 258.465C985.548 256.72 994.225 256.488 1003.29 257.782C1012.36 259.077 1021.65 261.872 1030.62 266.008C1039.59 270.145 1048.07 275.541 1055.57 281.89L1015.04 316.297L974.507 350.704Z" fill="url(#paint11_radial_4008_4)" fill-opacity="0.8"/>
<path d="M804.379 72.7583C793.125 81.6899 780.469 89.1645 767.132 94.7554C753.794 100.346 740.038 103.944 726.648 105.343C713.258 106.742 700.497 105.916 689.093 102.91C677.688 99.9045 667.865 94.779 660.182 87.8262C652.5 80.8734 647.109 72.2295 644.318 62.388C641.527 52.5466 641.39 41.7002 643.916 30.4683C646.441 19.2365 651.579 7.83896 659.036 -3.07339C666.493 -13.9858 676.124 -24.1993 687.378 -33.1308L745.878 19.8138L804.379 72.7583Z" fill="url(#paint12_radial_4008_4)"/>
<path d="M804.379 72.7583C793.125 81.6899 780.469 89.1645 767.132 94.7554C753.794 100.346 740.038 103.944 726.648 105.343C713.258 106.742 700.497 105.916 689.093 102.91C677.688 99.9045 667.865 94.779 660.182 87.8262C652.5 80.8734 647.109 72.2295 644.318 62.388C641.527 52.5466 641.39 41.7002 643.916 30.4683C646.441 19.2365 651.579 7.83896 659.036 -3.07339C666.493 -13.9858 676.124 -24.1993 687.378 -33.1308L745.878 19.8138L804.379 72.7583Z" fill="url(#paint13_radial_4008_4)" fill-opacity="0.8"/>
<ellipse cx="55.5535" cy="65.7482" rx="55.5535" ry="65.7482" transform="matrix(0.0206603 0.999787 -0.99989 0.0148411 1364.27 -20.046)" fill="url(#paint14_radial_4008_4)"/>
<ellipse cx="47.1716" cy="48.6899" rx="47.1716" ry="48.6899" transform="matrix(0.0206603 0.999787 -0.99989 0.0148411 1157.62 -71.3486)" fill="url(#paint15_radial_4008_4)"/>
<g filter="url(#filter2_i_4008_4)">
<ellipse cx="18.691" cy="23.311" rx="18.691" ry="23.311" transform="matrix(0.0206603 0.999787 -0.99989 0.0148411 1450.74 194.282)" fill="url(#paint16_linear_4008_4)"/>
</g>
<g filter="url(#filter3_i_4008_4)">
<ellipse cx="22.0523" cy="19.7577" rx="22.0523" ry="19.7577" transform="matrix(-0.999942 0.0107739 -0.014999 -0.999888 525.5 76.4315)" fill="url(#paint17_linear_4008_4)"/>
</g>
<g filter="url(#filter4_i_4008_4)">
<ellipse cx="1575" cy="234.5" rx="65.5" ry="62" transform="rotate(90 1575 234.5)" fill="url(#paint18_radial_4008_4)"/>
</g>
<g filter="url(#filter5_i_4008_4)">
<ellipse cx="98.8112" cy="106.83" rx="98.8112" ry="106.83" transform="matrix(-0.723917 -0.689888 0.798581 -0.601887 574.94 428.804)" fill="url(#paint19_radial_4008_4)"/>
</g>
<path d="M401.332 157.592C382.44 153.443 364.872 144.651 349.774 131.787C334.677 118.924 322.388 102.278 313.71 82.9368C305.032 63.5951 300.16 41.9915 299.41 19.5348C298.661 -2.92184 302.051 -25.7271 309.361 -47.3939C316.67 -69.0606 327.735 -89.1021 341.832 -106.211C355.929 -123.321 372.743 -137.114 391.177 -146.69C409.611 -156.267 429.251 -161.413 448.816 -161.792C468.381 -162.171 487.432 -157.775 504.726 -148.89L479.739 -92.6788C469.007 -98.1922 457.185 -100.92 445.044 -100.685C432.902 -100.45 420.715 -97.2567 409.275 -91.3137C397.836 -85.3707 387.402 -76.8115 378.654 -66.1941C369.905 -55.5768 363.039 -43.1398 358.503 -29.6943C353.967 -16.2488 351.863 -2.09673 352.328 11.839C352.793 25.7747 355.817 39.181 361.202 51.1837C366.588 63.1864 374.213 73.5158 383.582 81.4984C392.951 89.4809 403.853 94.9373 415.577 97.5117L401.332 157.592Z" fill="url(#paint20_radial_4008_4)"/>
<ellipse cx="31.1392" cy="10.7139" rx="31.1392" ry="10.7139" transform="matrix(-0.156125 0.987737 -0.993617 -0.112807 423.719 97.8453)" fill="white"/>
<path d="M1682.3 103.576C1673.03 95.7285 1665.29 86.7316 1659.53 77.099C1653.77 67.4663 1650.09 57.3866 1648.72 47.4352C1647.35 37.4839 1648.3 27.8558 1651.53 19.1007C1654.76 10.3457 1660.19 2.63511 1667.53 -3.59075C1674.86 -9.81662 1683.95 -14.4359 1694.27 -17.1847C1704.6 -19.9336 1715.96 -20.7582 1727.7 -19.6116C1739.45 -18.4649 1751.35 -15.3695 1762.72 -10.5019C1774.1 -5.63431 1784.73 0.910041 1794 8.75751L1738.15 56.1667L1682.3 103.576Z" fill="url(#paint21_radial_4008_4)"/>
<path d="M1682.3 103.576C1673.03 95.7285 1665.29 86.7316 1659.53 77.099C1653.77 67.4663 1650.09 57.3866 1648.72 47.4352C1647.35 37.4839 1648.3 27.8558 1651.53 19.1007C1654.76 10.3457 1660.19 2.63511 1667.53 -3.59075C1674.86 -9.81662 1683.95 -14.4359 1694.27 -17.1847C1704.6 -19.9336 1715.96 -20.7582 1727.7 -19.6116C1739.45 -18.4649 1751.35 -15.3695 1762.72 -10.5019C1774.1 -5.63431 1784.73 0.910041 1794 8.75751L1738.15 56.1667L1682.3 103.576Z" fill="url(#paint22_radial_4008_4)" fill-opacity="0.8"/>
<g filter="url(#filter6_d_4008_4)">
<ellipse cx="62.7489" cy="58.6234" rx="62.7489" ry="58.6234" transform="matrix(-0.0273434 -0.999626 0.999247 -0.0387993 1774.27 376)" fill="url(#paint23_radial_4008_4)"/>
<ellipse cx="62.7489" cy="58.6234" rx="62.7489" ry="58.6234" transform="matrix(-0.0273434 -0.999626 0.999247 -0.0387993 1774.27 376)" fill="url(#paint24_radial_4008_4)" fill-opacity="0.9"/>
</g>
<ellipse cx="54.5138" cy="53.9159" rx="54.5138" ry="53.9159" transform="matrix(0.128185 0.99175 -0.99248 0.122411 1950.02 -17)" fill="url(#paint25_radial_4008_4)"/>
<g filter="url(#filter7_i_4008_4)">
<path d="M1819.73 128.833C1813.51 128.925 1808.35 123.478 1808.21 116.667C1808.07 109.856 1813 104.26 1819.22 104.167C1825.45 104.075 1830.6 109.522 1830.75 116.333C1830.89 123.144 1825.96 128.74 1819.73 128.833Z" fill="url(#paint26_radial_4008_4)"/>
</g>
</g>
<g filter="url(#filter8_d_4008_4)" style="mix-blend-mode:saturation">
<path d="M1575.18 312C1581.07 316.337 1585.97 321.534 1589.61 327.296C1593.24 333.057 1595.55 339.269 1596.38 345.578C1597.22 351.886 1596.57 358.168 1594.48 364.063C1592.39 369.958 1588.89 375.352 1584.18 379.937C1579.48 384.522 1573.66 388.207 1567.07 390.783C1560.47 393.359 1553.22 394.775 1545.73 394.951C1538.24 395.126 1530.66 394.057 1523.43 391.804C1516.19 389.552 1509.44 386.161 1503.55 381.824L1539.37 346.912L1575.18 312Z" fill="url(#paint27_radial_4008_4)" shape-rendering="crispEdges"/>
</g>
</g>
<defs>
<filter id="filter0_d_4008_4" x="906.667" y="8.79236" width="114.421" height="104.241" filterUnits="userSpaceOnUse" color-interpolation-filters="sRGB">
<feFlood flood-opacity="0" result="BackgroundImageFix"/>
<feColorMatrix in="SourceAlpha" type="matrix" values="0 0 0 0 0 0 0 0 0 0 0 0 0 0 0 0 0 0 127 0" result="hardAlpha"/>
<feOffset dx="2" dy="4"/>
<feGaussianBlur stdDeviation="2"/>
<feComposite in2="hardAlpha" operator="out"/>
<feColorMatrix type="matrix" values="0 0 0 0 0.829167 0 0 0 0 0.0656424 0 0 0 0 0.251364 0 0 0 1 0"/>
<feBlend mode="normal" in2="BackgroundImageFix" result="effect1_dropShadow_4008_4"/>
<feBlend mode="normal" in="SourceGraphic" in2="effect1_dropShadow_4008_4" result="shape"/>
</filter>
<filter id="filter1_d_4008_4" x="1130.98" y="133.653" width="153.01" height="159.87" filterUnits="userSpaceOnUse" color-interpolation-filters="sRGB">
<feFlood flood-opacity="0" result="BackgroundImageFix"/>
<feColorMatrix in="SourceAlpha" type="matrix" values="0 0 0 0 0 0 0 0 0 0 0 0 0 0 0 0 0 0 127 0" result="hardAlpha"/>
<feOffset dx="1" dy="1"/>
<feGaussianBlur stdDeviation="0.5"/>
<feComposite in2="hardAlpha" operator="out"/>
<feColorMatrix type="matrix" values="0 0 0 0 0.85098 0 0 0 0 0.439216 0 0 0 0 0.537255 0 0 0 1 0"/>
<feBlend mode="normal" in2="BackgroundImageFix" result="effect1_dropShadow_4008_4"/>
<feBlend mode="normal" in="SourceGraphic" in2="effect1_dropShadow_4008_4" result="shape"/>
</filter>
<filter id="filter2_i_4008_4" x="1404.51" y="194.625" width="46.623" height="41.3806" filterUnits="userSpaceOnUse" color-interpolation-filters="sRGB">
<feFlood flood-opacity="0" result="BackgroundImageFix"/>
<feBlend mode="normal" in="SourceGraphic" in2="BackgroundImageFix" result="shape"/>
<feColorMatrix in="SourceAlpha" type="matrix" values="0 0 0 0 0 0 0 0 0 0 0 0 0 0 0 0 0 0 127 0" result="hardAlpha"/>
<feOffset dy="4"/>
<feGaussianBlur stdDeviation="2"/>
<feComposite in2="hardAlpha" operator="arithmetic" k2="-1" k3="1"/>
<feColorMatrix type="matrix" values="0 0 0 0 0.829167 0 0 0 0 0.0656424 0 0 0 0 0.251364 0 0 0 1 0"/>
<feBlend mode="normal" in2="shape" result="effect1_innerShadow_4008_4"/>
</filter>
<filter id="filter3_i_4008_4" x="481.099" y="37.1567" width="44.106" height="43.5139" filterUnits="userSpaceOnUse" color-interpolation-filters="sRGB">
<feFlood flood-opacity="0" result="BackgroundImageFix"/>
<feBlend mode="normal" in="SourceGraphic" in2="BackgroundImageFix" result="shape"/>
<feColorMatrix in="SourceAlpha" type="matrix" values="0 0 0 0 0 0 0 0 0 0 0 0 0 0 0 0 0 0 127 0" result="hardAlpha"/>
<feOffset dy="4"/>
<feGaussianBlur stdDeviation="2"/>
<feComposite in2="hardAlpha" operator="arithmetic" k2="-1" k3="1"/>
<feColorMatrix type="matrix" values="0 0 0 0 0.829167 0 0 0 0 0.0656424 0 0 0 0 0.251364 0 0 0 1 0"/>
<feBlend mode="normal" in2="shape" result="effect1_innerShadow_4008_4"/>
</filter>
<filter id="filter4_i_4008_4" x="1513" y="169" width="125" height="132" filterUnits="userSpaceOnUse" color-interpolation-filters="sRGB">
<feFlood flood-opacity="0" result="BackgroundImageFix"/>
<feBlend mode="normal" in="SourceGraphic" in2="BackgroundImageFix" result="shape"/>
<feColorMatrix in="SourceAlpha" type="matrix" values="0 0 0 0 0 0 0 0 0 0 0 0 0 0 0 0 0 0 127 0" result="hardAlpha"/>
<feOffset dx="1" dy="2"/>
<feGaussianBlur stdDeviation="0.5"/>
<feComposite in2="hardAlpha" operator="arithmetic" k2="-1" k3="1"/>
<feColorMatrix type="matrix" values="0 0 0 0 1 0 0 0 0 1 0 0 0 0 1 0 0 0 1 0"/>
<feBlend mode="normal" in2="shape" result="effect1_innerShadow_4008_4"/>
</filter>
<filter id="filter5_i_4008_4" x="477.387" y="202.627" width="223.67" height="188.419" filterUnits="userSpaceOnUse" color-interpolation-filters="sRGB">
<feFlood flood-opacity="0" result="BackgroundImageFix"/>
<feBlend mode="normal" in="SourceGraphic" in2="BackgroundImageFix" result="shape"/>
<feColorMatrix in="SourceAlpha" type="matrix" values="0 0 0 0 0 0 0 0 0 0 0 0 0 0 0 0 0 0 127 0" result="hardAlpha"/>
<feOffset dx="1" dy="2"/>
<feGaussianBlur stdDeviation="0.5"/>
<feComposite in2="hardAlpha" operator="arithmetic" k2="-1" k3="1"/>
<feColorMatrix type="matrix" values="0 0 0 0 1 0 0 0 0 1 0 0 0 0 1 0 0 0 1 0"/>
<feBlend mode="normal" in2="shape" result="effect1_innerShadow_4008_4"/>
</filter>
<filter id="filter6_d_4008_4" x="1770.53" y="248.233" width="125.209" height="133.535" filterUnits="userSpaceOnUse" color-interpolation-filters="sRGB">
<feFlood flood-opacity="0" result="BackgroundImageFix"/>
<feColorMatrix in="SourceAlpha" type="matrix" values="0 0 0 0 0 0 0 0 0 0 0 0 0 0 0 0 0 0 127 0" result="hardAlpha"/>
<feOffset dx="2" dy="4"/>
<feGaussianBlur stdDeviation="2"/>
<feComposite in2="hardAlpha" operator="out"/>
<feColorMatrix type="matrix" values="0 0 0 0 0.829167 0 0 0 0 0.0656424 0 0 0 0 0.251364 0 0 0 1 0"/>
<feBlend mode="normal" in2="BackgroundImageFix" result="effect1_dropShadow_4008_4"/>
<feBlend mode="normal" in="SourceGraphic" in2="effect1_dropShadow_4008_4" result="shape"/>
</filter>
<filter id="filter7_i_4008_4" x="1808.21" y="104.166" width="22.5386" height="28.6678" filterUnits="userSpaceOnUse" color-interpolation-filters="sRGB">
<feFlood flood-opacity="0" result="BackgroundImageFix"/>
<feBlend mode="normal" in="SourceGraphic" in2="BackgroundImageFix" result="shape"/>
<feColorMatrix in="SourceAlpha" type="matrix" values="0 0 0 0 0 0 0 0 0 0 0 0 0 0 0 0 0 0 127 0" result="hardAlpha"/>
<feOffset dy="4"/>
<feGaussianBlur stdDeviation="2"/>
<feComposite in2="hardAlpha" operator="arithmetic" k2="-1" k3="1"/>
<feColorMatrix type="matrix" values="0 0 0 0 0.829167 0 0 0 0 0.0656424 0 0 0 0 0.251364 0 0 0 1 0"/>
<feBlend mode="normal" in2="shape" result="effect1_innerShadow_4008_4"/>
</filter>
<filter id="filter8_d_4008_4" x="1503.55" y="312" width="95.1875" height="84.9691" filterUnits="userSpaceOnUse" color-interpolation-filters="sRGB">
<feFlood flood-opacity="0" result="BackgroundImageFix"/>
<feColorMatrix in="SourceAlpha" type="matrix" values="0 0 0 0 0 0 0 0 0 0 0 0 0 0 0 0 0 0 127 0" result="hardAlpha"/>
<feOffset dx="1" dy="1"/>
<feGaussianBlur stdDeviation="0.5"/>
<feComposite in2="hardAlpha" operator="out"/>
<feColorMatrix type="matrix" values="0 0 0 0 0.85098 0 0 0 0 0.439216 0 0 0 0 0.537255 0 0 0 1 0"/>
<feBlend mode="normal" in2="BackgroundImageFix" result="effect1_dropShadow_4008_4"/>
<feBlend mode="normal" in="SourceGraphic" in2="effect1_dropShadow_4008_4" result="shape"/>
</filter>
<linearGradient id="paint0_linear_4008_4" x1="196.5" y1="0" x2="196.5" y2="1939" gradientUnits="userSpaceOnUse">
<stop offset="0.475962" stop-color="#220F58"/>
<stop offset="0.725962" stop-color="#1119D3" stop-opacity="0.8"/>
<stop offset="1" stop-color="#37BBBB"/>
</linearGradient>
<linearGradient id="paint1_linear_4008_4" x1="681.77" y1="441.307" x2="1121.1" y2="324.503" gradientUnits="userSpaceOnUse">
<stop stop-color="#D9D9D9"/>
<stop offset="1" stop-color="#D31140"/>
</linearGradient>
<radialGradient id="paint2_radial_4008_4" cx="0" cy="0" r="1" gradientTransform="matrix(-98.9301 -153.34 162.783 -112.553 959.029 368.857)" gradientUnits="userSpaceOnUse">
<stop offset="0.715" stop-color="white"/>
<stop offset="0.885" stop-color="#D31140"/>
</radialGradient>
<radialGradient id="paint3_radial_4008_4" cx="0" cy="0" r="1" gradientTransform="matrix(4.97991 -178.521 188.634 -2.00235 1429.33 151.629)" gradientUnits="userSpaceOnUse">
<stop offset="0.67" stop-color="#D31140"/>
<stop offset="0.85" stop-color="#EBEBEB"/>
</radialGradient>
<radialGradient id="paint4_radial_4008_4" cx="0" cy="0" r="1" gradientTransform="matrix(-39.009 -140.016 303.433 -77.9335 1417.26 303.008)" gradientUnits="userSpaceOnUse">
<stop offset="0.675" stop-color="#220F58"/>
<stop offset="0.72" stop-color="white" stop-opacity="0"/>
</radialGradient>
<linearGradient id="paint5_linear_4008_4" x1="1107.27" y1="510.924" x2="778.423" y2="274.6" gradientUnits="userSpaceOnUse">
<stop stop-color="#D9D9D9"/>
<stop offset="1" stop-color="#D31140"/>
</linearGradient>
<radialGradient id="paint6_radial_4008_4" cx="0" cy="0" r="1" gradientTransform="matrix(39.693 -167.191 165.938 31.6348 890.819 370.879)" gradientUnits="userSpaceOnUse">
<stop offset="0.715" stop-color="white"/>
<stop offset="0.885" stop-color="#D31140"/>
</radialGradient>
<radialGradient id="paint7_radial_4008_4" cx="0" cy="0" r="1" gradientUnits="userSpaceOnUse" gradientTransform="translate(53.1963 48.1349) rotate(90) scale(48.1349 53.1963)">
<stop offset="0.915" stop-color="#7E11D3"/>
<stop offset="0.97" stop-color="#D9D9D9"/>
</radialGradient>
<radialGradient id="paint8_radial_4008_4" cx="0" cy="0" r="1" gradientTransform="matrix(30.5328 82.6119 -77.3661 24.2589 22.6634 13.6579)" gradientUnits="userSpaceOnUse">
<stop stop-color="#7E11D3"/>
<stop offset="1" stop-color="#9589E0"/>
</radialGradient>
<radialGradient id="paint9_radial_4008_4" cx="0" cy="0" r="1" gradientTransform="matrix(-80.0108 42.6532 -54.3084 -73.1728 1227.68 206.826)" gradientUnits="userSpaceOnUse">
<stop offset="0.035" stop-color="#D97089" stop-opacity="0.8"/>
<stop offset="0.345" stop-color="#D31140"/>
<stop offset="0.615" stop-color="#D31140"/>
<stop offset="1" stop-color="#D9D9D9"/>
</radialGradient>
<radialGradient id="paint10_radial_4008_4" cx="0" cy="0" r="1" gradientTransform="matrix(-57.1382 -48.3454 40.531 -34.4068 1015.04 316.297)" gradientUnits="userSpaceOnUse">
<stop stop-color="#9589E0"/>
<stop offset="0.512576" stop-color="#7E11D3"/>
<stop offset="0.615" stop-color="#7E11D3"/>
<stop offset="1" stop-color="#D9D9D9"/>
</radialGradient>
<radialGradient id="paint11_radial_4008_4" cx="0" cy="0" r="1" gradientTransform="matrix(-12.019 -9.2421 64.8743 -60.5976 1017.49 316.297)" gradientUnits="userSpaceOnUse">
<stop stop-color="#D31140"/>
<stop offset="0.58" stop-color="#D31140" stop-opacity="0.3"/>
<stop offset="0.625" stop-color="#D31140" stop-opacity="0"/>
</radialGradient>
<radialGradient id="paint12_radial_4008_4" cx="0" cy="0" r="1" gradientTransform="matrix(-85.6962 68.0124 -58.5008 -52.9446 745.878 19.8138)" gradientUnits="userSpaceOnUse">
<stop stop-color="#9589E0"/>
<stop offset="0.512576" stop-color="#7E11D3"/>
<stop offset="0.615" stop-color="#7E11D3"/>
<stop offset="1" stop-color="#D9D9D9"/>
</radialGradient>
<radialGradient id="paint13_radial_4008_4" cx="0" cy="0" r="1" gradientTransform="matrix(-16.4159 14.3698 -103.232 -85.1216 745.954 16.7568)" gradientUnits="userSpaceOnUse">
<stop stop-color="#D31140"/>
<stop offset="0.58" stop-color="#D31140" stop-opacity="0.3"/>
<stop offset="0.625" stop-color="#D31140" stop-opacity="0"/>
</radialGradient>
<radialGradient id="paint14_radial_4008_4" cx="0" cy="0" r="1" gradientUnits="userSpaceOnUse" gradientTransform="translate(55.5535 65.7482) rotate(90) scale(65.7482 55.5535)">
<stop stop-color="#D9D9D9"/>
<stop offset="0.61" stop-color="#D31140"/>
<stop offset="0.805" stop-color="#D31140"/>
<stop offset="1" stop-color="#D9D9D9"/>
</radialGradient>
<radialGradient id="paint15_radial_4008_4" cx="0" cy="0" r="1" gradientUnits="userSpaceOnUse" gradientTransform="translate(47.1716 48.6899) rotate(90) scale(48.6899 47.1716)">
<stop offset="0.175" stop-color="#D31140"/>
<stop offset="0.43" stop-color="#D9D9D9"/>
<stop offset="0.565" stop-color="#D9D9D9"/>
<stop offset="1" stop-color="#D31140"/>
</radialGradient>
<linearGradient id="paint16_linear_4008_4" x1="38.0777" y1="-0.236954" x2="12.9848" y2="43.3359" gradientUnits="userSpaceOnUse">
<stop stop-color="#D9D9D9"/>
<stop offset="1" stop-color="#7E11D3"/>
</linearGradient>
<linearGradient id="paint17_linear_4008_4" x1="44.9254" y1="-0.200835" x2="27.5532" y2="41.7911" gradientUnits="userSpaceOnUse">
<stop stop-color="#D9D9D9"/>
<stop offset="1" stop-color="#7E11D3"/>
</linearGradient>
<radialGradient id="paint18_radial_4008_4" cx="0" cy="0" r="1" gradientTransform="matrix(-103.58 -2.50847 1.72069 -69.9834 1602.64 269.445)" gradientUnits="userSpaceOnUse">
<stop offset="0.215" stop-color="#D9D9D9"/>
<stop offset="1" stop-color="#7E11D3"/>
</radialGradient>
<radialGradient id="paint19_radial_4008_4" cx="0" cy="0" r="1" gradientTransform="matrix(-156.257 -4.32225 2.59578 -120.586 140.506 167.043)" gradientUnits="userSpaceOnUse">
<stop offset="0.215" stop-color="#D9D9D9"/>
<stop offset="1" stop-color="#7E11D3"/>
</radialGradient>
<radialGradient id="paint20_radial_4008_4" cx="0" cy="0" r="1" gradientTransform="matrix(-137.121 -15.9803 26.0047 -160.272 438.874 -0.747286)" gradientUnits="userSpaceOnUse">
<stop offset="0.75" stop-color="#D31140"/>
<stop offset="1" stop-color="white"/>
</radialGradient>
<radialGradient id="paint21_radial_4008_4" cx="0" cy="0" r="1" gradientTransform="matrix(-70.6258 -59.7575 55.8478 -47.4092 1738.15 56.1668)" gradientUnits="userSpaceOnUse">
<stop stop-color="#D97089" stop-opacity="0.8"/>
<stop offset="0.512576" stop-color="#D31140"/>
<stop offset="0.615" stop-color="#D31140"/>
<stop offset="1" stop-color="#D9D9D9"/>
</radialGradient>
<radialGradient id="paint22_radial_4008_4" cx="0" cy="0" r="1" gradientTransform="matrix(-14.9337 -11.3578 89.8529 -83.1064 1741.35 56.0197)" gradientUnits="userSpaceOnUse">
<stop stop-color="#D31140"/>
<stop offset="0.58" stop-color="#D31140" stop-opacity="0.3"/>
<stop offset="0.625" stop-color="#D31140" stop-opacity="0"/>
</radialGradient>
<radialGradient id="paint23_radial_4008_4" cx="0" cy="0" r="1" gradientUnits="userSpaceOnUse" gradientTransform="translate(62.7489 58.6234) rotate(90) scale(58.6234 62.7489)">
<stop offset="0.915" stop-color="#7E11D3"/>
<stop offset="0.97" stop-color="#D9D9D9"/>
</radialGradient>
<radialGradient id="paint24_radial_4008_4" cx="0" cy="0" r="1" gradientTransform="matrix(36.0157 100.613 -91.259 29.5449 26.7332 16.6339)" gradientUnits="userSpaceOnUse">
<stop stop-color="#7E11D3"/>
<stop offset="1" stop-color="#9589E0"/>
</radialGradient>
<radialGradient id="paint25_radial_4008_4" cx="0" cy="0" r="1" gradientUnits="userSpaceOnUse" gradientTransform="translate(54.5138 53.9159) rotate(90) scale(53.9159 54.5138)">
<stop offset="0.295" stop-color="#D31140"/>
<stop offset="0.605" stop-color="#D9D9D9"/>
<stop offset="0.695" stop-color="#D9D9D9"/>
<stop offset="1" stop-color="#D31140"/>
</radialGradient>
<radialGradient id="paint26_radial_4008_4" cx="0" cy="0" r="1" gradientTransform="matrix(33.0449 -167.101 1774 379.753 1864.82 269.81)" gradientUnits="userSpaceOnUse">
<stop offset="0.585" stop-color="#D9D9D9"/>
<stop offset="1" stop-color="#D31140"/>
</radialGradient>
<radialGradient id="paint27_radial_4008_4" cx="0" cy="0" r="1" gradientTransform="matrix(44.8183 33.0252 -35.8161 34.9118 1539.37 346.912)" gradientUnits="userSpaceOnUse">
<stop offset="0.035" stop-color="#1119D3" stop-opacity="0.8"/>
<stop offset="0.345" stop-color="#7E11D3"/>
<stop offset="0.615" stop-color="#7E11D3"/>
<stop offset="1" stop-color="#D9D9D9"/>
</radialGradient>
<clipPath id="clip0_4008_4">
<rect width="393" height="1939" fill="white" transform="matrix(0 1 -1 0 1939 0)"/>
</clipPath>
</defs>
</svg>
